<?xml version="1.0" standalone="no"?><!DOCTYPE svg PUBLIC "-//W3C//DTD SVG 1.1//EN" "http://www.w3.org/Graphics/SVG/1.1/DTD/svg11.dtd"><svg t="1592804511936" class="icon" viewBox="0 0 1024 1024" version="1.1" xmlns="http://www.w3.org/2000/svg" p-id="6489" xmlns:xlink="http://www.w3.org/1999/xlink" width="200" height="200"><defs><style type="text/css"></style></defs><path d="M512 768.90453333c-194.32106667 0-443.73333333-127.88053333-443.73333333-255.744C68.26666667 385.3312 320.9728 273.06666667 508.19413333 273.06666667S955.73333333 385.3312 955.73333333 513.16053333c0 127.86346667-249.36106667 255.744-443.73333333 255.744z m0-58.70933333c160.5632 0 377.17333333-94.5664 377.17333333-200.20906667 0-105.59146667-225.65546667-185.73653333-380.3136-185.73653333s-369.49333333 80.14506667-369.49333333 185.73653333c0 105.64266667 212.10453333 200.192 372.6336 200.192z m4.16426667-25.2928a169.5232 169.5232 0 0 1-169.54026667-169.54026667 169.5232 169.5232 0 0 1 169.54026667-169.55733333c93.67893333 0 169.59146667 75.8784 169.59146666 169.55733333 0 93.67893333-75.91253333 169.54026667-169.59146666 169.54026667z m0-56.2176c62.90773333 0 113.8688-50.72213333 113.8688-113.32266667 0-62.6176-50.96106667-113.32266667-113.8688-113.32266666-62.90773333 0-113.8688 50.70506667-113.8688 113.32266666 0 62.60053333 50.96106667 113.32266667 113.8688 113.32266667z" p-id="6490" fill="#999999"></path></svg>